# Created by FreeCAD <https://www.freecad.org>
v 19.411367 -1.280938 0.000000
v 3.139199 -1.362707 0.000000
v 3.139199 -1.362707 2.000000
v 19.411367 -1.280938 2.000000
v 19.350040 -9.641889 0.000000
v 19.350040 -9.641889 2.000000
v 12.481385 -9.601004 0.000000
v 12.481385 -9.601004 2.000000
v 12.440500 -7.883840 0.000000
v 12.440500 -7.883840 2.000000
v 10.723337 -7.822513 0.000000
v 10.723337 -7.822513 2.000000
v 10.600682 -7.699858 0.000000
v 10.600682 -7.699858 2.000000
v 10.478029 -7.781628 0.000000
v 10.478029 -7.781628 2.000000
v 10.641568 -7.945168 0.000000
v 10.641568 -7.945168 2.000000
v 10.682453 -9.580562 0.000000
v 10.682453 -9.580562 2.000000
v 8.781307 -9.539677 0.000000
v 8.781307 -9.539677 2.000000
v 8.740422 -7.638531 0.000000
v 8.740422 -7.638531 2.000000
v 9.762543 -7.045701 0.000000
v 9.762543 -7.045701 2.000000
v 9.946525 -7.250125 0.000000
v 9.946525 -7.250125 2.000000
v 10.048738 -7.188798 0.000000
v 10.048738 -7.188798 2.000000
v 9.292368 -6.411986 0.000000
v 9.292368 -6.411986 2.000000
v 9.190156 -4.674380 0.000000
v 9.190156 -4.674380 2.000000
v 8.597325 -4.735707 0.000000
v 8.597325 -4.735707 2.000000
v 8.556440 -5.226326 0.000000
v 8.556440 -5.226326 2.000000
v 3.180084 -5.144556 0.000000
v 3.180084 -5.144556 2.000000
v 3.159640 -1.321822 0.000000
v 3.159640 -1.321822 2.000000
vn -0.005025 0.999987 0.000000
vn -0.005025 0.999987 0.000000
vn 0.999973 -0.007335 0.000000
vn 0.999973 -0.007335 0.000000
vn -0.005952 -0.999982 0.000000
vn -0.005952 -0.999982 0.000000
vn -0.999717 -0.023803 0.000000
vn -0.999717 -0.023803 0.000000
vn -0.035691 -0.999363 0.000000
vn -0.035691 -0.999363 0.000000
vn -0.707107 -0.707107 0.000000
vn -0.707107 -0.707107 0.000000
vn 0.554706 -0.832046 0.000000
vn 0.554706 -0.832046 0.000000
vn 0.707108 0.707106 0.000000
vn 0.707108 0.707106 -0.000000
vn 0.999688 0.024992 0.000000
vn 0.999688 0.024992 -0.000000
vn -0.021500 -0.999769 0.000000
vn -0.021500 -0.999769 0.000000
vn -0.999769 -0.021500 0.000000
vn -0.999769 -0.021500 0.000000
vn -0.501719 0.865031 0.000000
vn -0.501719 0.865031 0.000000
vn 0.743294 0.668965 0.000000
vn 0.743294 0.668965 -0.000000
vn -0.514485 0.857500 0.000000
vn -0.514485 0.857500 0.000000
vn -0.716471 -0.697617 0.000000
vn -0.716471 -0.697617 0.000000
vn -0.998274 -0.058722 0.000000
vn -0.998274 -0.058722 0.000000
vn 0.102899 -0.994692 0.000000
vn 0.102899 -0.994692 0.000000
vn 0.996546 -0.083046 0.000000
vn 0.996546 -0.083046 0.000000
vn -0.015207 -0.999884 0.000000
vn -0.015207 -0.999884 0.000000
vn -0.999986 -0.005348 0.000000
vn -0.999986 -0.005348 0.000000
f 1//1 2//1 3//1
f 1//2 3//2 4//2
f 5//3 1//3 4//3
f 5//4 4//4 6//4
f 7//5 5//5 6//5
f 7//6 6//6 8//6
f 9//7 7//7 8//7
f 9//8 8//8 10//8
f 11//9 9//9 10//9
f 11//10 10//10 12//10
f 13//11 11//11 12//11
f 13//12 12//12 14//12
f 15//13 13//13 14//13
f 15//14 14//14 16//14
f 17//15 15//15 16//15
f 17//16 16//16 18//16
f 19//17 17//17 18//17
f 19//18 18//18 20//18
f 21//19 19//19 20//19
f 21//20 20//20 22//20
f 23//21 21//21 22//21
f 23//22 22//22 24//22
f 25//23 23//23 24//23
f 25//24 24//24 26//24
f 27//25 25//25 26//25
f 27//26 26//26 28//26
f 29//27 27//27 28//27
f 29//28 28//28 30//28
f 31//29 29//29 30//29
f 31//30 30//30 32//30
f 33//31 31//31 32//31
f 33//32 32//32 34//32
f 35//33 33//33 34//33
f 35//34 34//34 36//34
f 37//35 35//35 36//35
f 37//36 36//36 38//36
f 39//37 37//37 38//37
f 39//38 38//38 40//38
f 41//39 39//39 40//39
f 41//40 40//40 42//40
